<svg xmlns="http://www.w3.org/2000/svg" width="25" height="19.125" viewBox="0 0 29.19 19.125">
  <g id="united-states" transform="translate(0 0)">
    <path id="Path_1388" data-name="Path 1388" d="M27,88.276H2.186A2.186,2.186,0,0,0,0,90.462v14.753A2.186,2.186,0,0,0,2.186,107.4H27a2.186,2.186,0,0,0,2.186-2.186V90.462A2.186,2.186,0,0,0,27,88.276Z" transform="translate(0 -88.276)" fill="#f5f5f5"/>
    <g id="Group_891" data-name="Group 891" transform="translate(0 0)">
      <path id="Path_1389" data-name="Path 1389" d="M2.109,89.747h28.95a2.186,2.186,0,0,0-2.066-1.471H4.175A2.187,2.187,0,0,0,2.109,89.747Z" transform="translate(-1.989 -88.276)" fill="#ff4b55"/>
      <rect id="Rectangle_584" data-name="Rectangle 584" width="29.191" height="1.471" transform="translate(0 5.885)" fill="#ff4b55"/>
      <rect id="Rectangle_585" data-name="Rectangle 585" width="29.191" height="1.471" transform="translate(0 2.942)" fill="#ff4b55"/>
      <path id="Path_1390" data-name="Path 1390" d="M0,244.066a.5.5,0,0,0,.5.5H29.191V243.1H0Z" transform="translate(0 -234.271)" fill="#ff4b55"/>
      <rect id="Rectangle_586" data-name="Rectangle 586" width="29.191" height="1.471" transform="translate(0 14.712)" fill="#ff4b55"/>
      <path id="Path_1391" data-name="Path 1391" d="M31.059,397.92H2.109a2.187,2.187,0,0,0,2.066,1.471H28.993A2.187,2.187,0,0,0,31.059,397.92Z" transform="translate(-1.989 -380.266)" fill="#ff4b55"/>
      <rect id="Rectangle_587" data-name="Rectangle 587" width="29.191" height="1.471" transform="translate(0 11.769)" fill="#ff4b55"/>
    </g>
    <path id="Path_1392" data-name="Path 1392" d="M.5,98.573H13.086a.5.5,0,0,0,.5-.5V88.778a.5.5,0,0,0-.5-.5H2.186A2.186,2.186,0,0,0,0,90.461V98.07A.5.5,0,0,0,.5,98.573Z" transform="translate(0 -88.275)" fill="#41479b"/>
    <g id="Group_892" data-name="Group 892" transform="translate(0.813 1.123)">
      <path id="Path_1393" data-name="Path 1393" d="M14.853,108l.111.334.352,0a.047.047,0,0,1,.028.086l-.283.209.106.336a.047.047,0,0,1-.073.053l-.286-.2-.286.2a.047.047,0,0,1-.073-.053l.106-.336-.283-.209a.047.047,0,0,1,.028-.086l.352,0,.111-.334A.047.047,0,0,1,14.853,108Z" transform="translate(-14.253 -107.968)" fill="#f5f5f5"/>
      <path id="Path_1394" data-name="Path 1394" d="M14.853,138.655l.111.334.352,0a.047.047,0,0,1,.028.086l-.283.209.106.336a.047.047,0,0,1-.073.053l-.286-.2-.286.2a.047.047,0,0,1-.073-.053l.106-.336-.283-.209a.047.047,0,0,1,.028-.086l.352,0,.111-.334A.047.047,0,0,1,14.853,138.655Z" transform="translate(-14.253 -136.875)" fill="#f5f5f5"/>
      <path id="Path_1395" data-name="Path 1395" d="M14.853,169.309l.111.334.352,0a.047.047,0,0,1,.028.086l-.283.209.106.336a.047.047,0,0,1-.073.053l-.286-.2-.286.2a.047.047,0,0,1-.073-.053l.106-.336-.283-.209a.047.047,0,0,1,.028-.086l.352,0,.111-.334A.047.047,0,0,1,14.853,169.309Z" transform="translate(-14.253 -165.781)" fill="#f5f5f5"/>
      <path id="Path_1396" data-name="Path 1396" d="M14.853,199.963l.111.334.352,0a.047.047,0,0,1,.028.086l-.283.209.106.336a.047.047,0,0,1-.073.053l-.286-.2-.286.2a.047.047,0,0,1-.073-.053l.106-.336-.283-.209a.047.047,0,0,1,.028-.086l.352,0,.111-.334A.047.047,0,0,1,14.853,199.963Z" transform="translate(-14.253 -194.688)" fill="#f5f5f5"/>
      <path id="Path_1397" data-name="Path 1397" d="M14.853,230.618l.111.334.352,0a.047.047,0,0,1,.028.086l-.283.209.106.336a.047.047,0,0,1-.073.053l-.286-.2-.286.2a.047.047,0,0,1-.073-.053l.106-.336-.283-.209a.047.047,0,0,1,.028-.086l.352,0,.111-.334A.047.047,0,0,1,14.853,230.618Z" transform="translate(-14.253 -223.595)" fill="#f5f5f5"/>
      <path id="Path_1398" data-name="Path 1398" d="M38.646,123.03l.111.334.352,0a.047.047,0,0,1,.028.086l-.283.209.106.336a.047.047,0,0,1-.073.053l-.286-.2-.286.2a.047.047,0,0,1-.073-.053l.106-.336-.283-.209a.047.047,0,0,1,.028-.086l.352,0,.111-.334A.047.047,0,0,1,38.646,123.03Z" transform="translate(-36.689 -122.141)" fill="#f5f5f5"/>
      <path id="Path_1399" data-name="Path 1399" d="M38.646,153.684l.111.334.352,0a.047.047,0,0,1,.028.086l-.283.209.106.336a.047.047,0,0,1-.073.053l-.286-.2-.286.2a.047.047,0,0,1-.073-.053l.106-.336-.283-.209a.047.047,0,0,1,.028-.086l.352,0,.111-.334A.047.047,0,0,1,38.646,153.684Z" transform="translate(-36.689 -151.047)" fill="#f5f5f5"/>
      <path id="Path_1400" data-name="Path 1400" d="M38.646,184.338l.111.334.352,0a.047.047,0,0,1,.028.086l-.283.209.106.336a.047.047,0,0,1-.073.053l-.286-.2-.286.2a.047.047,0,0,1-.073-.053l.106-.336-.283-.209a.047.047,0,0,1,.028-.086l.352,0,.111-.334A.047.047,0,0,1,38.646,184.338Z" transform="translate(-36.689 -179.953)" fill="#f5f5f5"/>
      <path id="Path_1401" data-name="Path 1401" d="M38.646,214.993l.111.334.352,0a.047.047,0,0,1,.028.086l-.283.209.106.336a.047.047,0,0,1-.073.053l-.286-.2-.286.2a.047.047,0,0,1-.073-.053l.106-.336-.283-.209a.047.047,0,0,1,.028-.086l.352,0,.111-.334A.047.047,0,0,1,38.646,214.993Z" transform="translate(-36.689 -208.861)" fill="#f5f5f5"/>
      <path id="Path_1402" data-name="Path 1402" d="M62.439,108l.111.334.352,0a.047.047,0,0,1,.028.086l-.283.209.106.336a.047.047,0,0,1-.073.053l-.286-.2-.286.2a.047.047,0,0,1-.073-.053l.106-.336-.283-.209a.047.047,0,0,1,.028-.086l.352,0,.111-.334A.047.047,0,0,1,62.439,108Z" transform="translate(-59.126 -107.968)" fill="#f5f5f5"/>
      <path id="Path_1403" data-name="Path 1403" d="M62.439,138.655l.111.334.352,0a.047.047,0,0,1,.028.086l-.283.209.106.336a.047.047,0,0,1-.073.053l-.286-.2-.286.2a.047.047,0,0,1-.073-.053l.106-.336-.283-.209a.047.047,0,0,1,.028-.086l.352,0,.111-.334A.047.047,0,0,1,62.439,138.655Z" transform="translate(-59.126 -136.875)" fill="#f5f5f5"/>
      <path id="Path_1404" data-name="Path 1404" d="M62.439,169.309l.111.334.352,0a.047.047,0,0,1,.028.086l-.283.209.106.336a.047.047,0,0,1-.073.053l-.286-.2-.286.2a.047.047,0,0,1-.073-.053l.106-.336-.283-.209a.047.047,0,0,1,.028-.086l.352,0,.111-.334A.047.047,0,0,1,62.439,169.309Z" transform="translate(-59.126 -165.781)" fill="#f5f5f5"/>
      <path id="Path_1405" data-name="Path 1405" d="M62.439,199.963l.111.334.352,0a.047.047,0,0,1,.028.086l-.283.209.106.336a.047.047,0,0,1-.073.053l-.286-.2-.286.2a.047.047,0,0,1-.073-.053l.106-.336-.283-.209a.047.047,0,0,1,.028-.086l.352,0,.111-.334A.047.047,0,0,1,62.439,199.963Z" transform="translate(-59.126 -194.688)" fill="#f5f5f5"/>
      <path id="Path_1406" data-name="Path 1406" d="M62.439,230.618l.111.334.352,0a.047.047,0,0,1,.028.086l-.283.209.106.336a.047.047,0,0,1-.073.053l-.286-.2-.286.2a.047.047,0,0,1-.073-.053l.106-.336-.283-.209a.047.047,0,0,1,.028-.086l.352,0,.111-.334A.047.047,0,0,1,62.439,230.618Z" transform="translate(-59.126 -223.595)" fill="#f5f5f5"/>
      <path id="Path_1407" data-name="Path 1407" d="M86.233,123.03l.111.334.352,0a.047.047,0,0,1,.028.086l-.283.209.106.336a.047.047,0,0,1-.073.053l-.286-.2-.286.2a.047.047,0,0,1-.073-.053l.106-.336-.283-.209a.047.047,0,0,1,.028-.086l.352,0,.111-.334A.047.047,0,0,1,86.233,123.03Z" transform="translate(-81.563 -122.141)" fill="#f5f5f5"/>
      <path id="Path_1408" data-name="Path 1408" d="M86.233,153.684l.111.334.352,0a.047.047,0,0,1,.028.086l-.283.209.106.336a.047.047,0,0,1-.073.053l-.286-.2-.286.2a.047.047,0,0,1-.073-.053l.106-.336-.283-.209a.047.047,0,0,1,.028-.086l.352,0,.111-.334A.047.047,0,0,1,86.233,153.684Z" transform="translate(-81.563 -151.047)" fill="#f5f5f5"/>
      <path id="Path_1409" data-name="Path 1409" d="M86.233,184.338l.111.334.352,0a.047.047,0,0,1,.028.086l-.283.209.106.336a.047.047,0,0,1-.073.053l-.286-.2-.286.2a.047.047,0,0,1-.073-.053l.106-.336-.283-.209a.047.047,0,0,1,.028-.086l.352,0,.111-.334A.047.047,0,0,1,86.233,184.338Z" transform="translate(-81.563 -179.953)" fill="#f5f5f5"/>
      <path id="Path_1410" data-name="Path 1410" d="M86.233,214.993l.111.334.352,0a.047.047,0,0,1,.028.086l-.283.209.106.336a.047.047,0,0,1-.073.053l-.286-.2-.286.2a.047.047,0,0,1-.073-.053l.106-.336-.283-.209a.047.047,0,0,1,.028-.086l.352,0,.111-.334A.047.047,0,0,1,86.233,214.993Z" transform="translate(-81.563 -208.861)" fill="#f5f5f5"/>
      <path id="Path_1411" data-name="Path 1411" d="M110.025,108l.111.334.352,0a.047.047,0,0,1,.028.086l-.283.209.106.336a.047.047,0,0,1-.073.053l-.287-.2-.286.2a.047.047,0,0,1-.073-.053l.106-.336-.283-.209a.047.047,0,0,1,.028-.086l.352,0,.111-.334A.047.047,0,0,1,110.025,108Z" transform="translate(-103.999 -107.968)" fill="#f5f5f5"/>
      <path id="Path_1412" data-name="Path 1412" d="M110.025,138.655l.111.334.352,0a.047.047,0,0,1,.028.086l-.283.209.106.336a.047.047,0,0,1-.073.053l-.287-.2-.286.2a.047.047,0,0,1-.073-.053l.106-.336-.283-.209a.047.047,0,0,1,.028-.086l.352,0,.111-.334A.047.047,0,0,1,110.025,138.655Z" transform="translate(-103.999 -136.875)" fill="#f5f5f5"/>
      <path id="Path_1413" data-name="Path 1413" d="M110.025,169.309l.111.334.352,0a.047.047,0,0,1,.028.086l-.283.209.106.336a.047.047,0,0,1-.073.053l-.287-.2-.286.2a.047.047,0,0,1-.073-.053l.106-.336-.283-.209a.047.047,0,0,1,.028-.086l.352,0,.111-.334A.047.047,0,0,1,110.025,169.309Z" transform="translate(-103.999 -165.781)" fill="#f5f5f5"/>
      <path id="Path_1414" data-name="Path 1414" d="M110.025,199.963l.111.334.352,0a.047.047,0,0,1,.028.086l-.283.209.106.336a.047.047,0,0,1-.073.053l-.287-.2-.286.2a.047.047,0,0,1-.073-.053l.106-.336-.283-.209a.047.047,0,0,1,.028-.086l.352,0,.111-.334A.047.047,0,0,1,110.025,199.963Z" transform="translate(-103.999 -194.688)" fill="#f5f5f5"/>
      <path id="Path_1415" data-name="Path 1415" d="M110.025,230.618l.111.334.352,0a.047.047,0,0,1,.028.086l-.283.209.106.336a.047.047,0,0,1-.073.053l-.287-.2-.286.2a.047.047,0,0,1-.073-.053l.106-.336-.283-.209a.047.047,0,0,1,.028-.086l.352,0,.111-.334A.047.047,0,0,1,110.025,230.618Z" transform="translate(-103.999 -223.595)" fill="#f5f5f5"/>
      <path id="Path_1416" data-name="Path 1416" d="M133.819,123.03l.111.334.352,0a.047.047,0,0,1,.028.086l-.283.209.106.336a.047.047,0,0,1-.073.053l-.286-.2-.286.2a.047.047,0,0,1-.073-.053l.106-.336-.283-.209a.047.047,0,0,1,.028-.086l.352,0,.111-.334A.047.047,0,0,1,133.819,123.03Z" transform="translate(-126.436 -122.141)" fill="#f5f5f5"/>
      <path id="Path_1417" data-name="Path 1417" d="M133.819,153.684l.111.334.352,0a.047.047,0,0,1,.028.086l-.283.209.106.336a.047.047,0,0,1-.073.053l-.286-.2-.286.2a.047.047,0,0,1-.073-.053l.106-.336-.283-.209a.047.047,0,0,1,.028-.086l.352,0,.111-.334A.047.047,0,0,1,133.819,153.684Z" transform="translate(-126.436 -151.047)" fill="#f5f5f5"/>
      <path id="Path_1418" data-name="Path 1418" d="M133.819,184.338l.111.334.352,0a.047.047,0,0,1,.028.086l-.283.209.106.336a.047.047,0,0,1-.073.053l-.286-.2-.286.2a.047.047,0,0,1-.073-.053l.106-.336-.283-.209a.047.047,0,0,1,.028-.086l.352,0,.111-.334A.047.047,0,0,1,133.819,184.338Z" transform="translate(-126.436 -179.953)" fill="#f5f5f5"/>
      <path id="Path_1419" data-name="Path 1419" d="M133.819,214.993l.111.334.352,0a.047.047,0,0,1,.028.086l-.283.209.106.336a.047.047,0,0,1-.073.053l-.286-.2-.286.2a.047.047,0,0,1-.073-.053l.106-.336-.283-.209a.047.047,0,0,1,.028-.086l.352,0,.111-.334A.047.047,0,0,1,133.819,214.993Z" transform="translate(-126.436 -208.861)" fill="#f5f5f5"/>
      <path id="Path_1420" data-name="Path 1420" d="M157.613,108l.111.334.352,0a.047.047,0,0,1,.028.086l-.283.209.106.336a.047.047,0,0,1-.073.053l-.286-.2-.286.2a.047.047,0,0,1-.073-.053l.106-.336-.283-.209a.047.047,0,0,1,.028-.086l.352,0,.111-.334A.047.047,0,0,1,157.613,108Z" transform="translate(-148.873 -107.968)" fill="#f5f5f5"/>
      <path id="Path_1421" data-name="Path 1421" d="M157.613,138.655l.111.334.352,0a.047.047,0,0,1,.028.086l-.283.209.106.336a.047.047,0,0,1-.073.053l-.286-.2-.286.2a.047.047,0,0,1-.073-.053l.106-.336-.283-.209a.047.047,0,0,1,.028-.086l.352,0,.111-.334A.047.047,0,0,1,157.613,138.655Z" transform="translate(-148.873 -136.875)" fill="#f5f5f5"/>
      <path id="Path_1422" data-name="Path 1422" d="M157.613,169.309l.111.334.352,0a.047.047,0,0,1,.028.086l-.283.209.106.336a.047.047,0,0,1-.073.053l-.286-.2-.286.2a.047.047,0,0,1-.073-.053l.106-.336-.283-.209a.047.047,0,0,1,.028-.086l.352,0,.111-.334A.047.047,0,0,1,157.613,169.309Z" transform="translate(-148.873 -165.781)" fill="#f5f5f5"/>
      <path id="Path_1423" data-name="Path 1423" d="M157.613,199.963l.111.334.352,0a.047.047,0,0,1,.028.086l-.283.209.106.336a.047.047,0,0,1-.073.053l-.286-.2-.286.2a.047.047,0,0,1-.073-.053l.106-.336-.283-.209a.047.047,0,0,1,.028-.086l.352,0,.111-.334A.047.047,0,0,1,157.613,199.963Z" transform="translate(-148.873 -194.688)" fill="#f5f5f5"/>
      <path id="Path_1424" data-name="Path 1424" d="M157.613,230.618l.111.334.352,0a.047.047,0,0,1,.028.086l-.283.209.106.336a.047.047,0,0,1-.073.053l-.286-.2-.286.2a.047.047,0,0,1-.073-.053l.106-.336-.283-.209a.047.047,0,0,1,.028-.086l.352,0,.111-.334A.047.047,0,0,1,157.613,230.618Z" transform="translate(-148.873 -223.595)" fill="#f5f5f5"/>
      <path id="Path_1425" data-name="Path 1425" d="M181.406,123.03l.111.334.352,0a.047.047,0,0,1,.028.086l-.283.209.106.336a.047.047,0,0,1-.073.053l-.286-.2-.286.2A.047.047,0,0,1,181,124l.106-.336-.283-.209a.047.047,0,0,1,.028-.086l.352,0,.111-.334A.047.047,0,0,1,181.406,123.03Z" transform="translate(-171.31 -122.141)" fill="#f5f5f5"/>
      <path id="Path_1426" data-name="Path 1426" d="M181.406,153.684l.111.334.352,0a.047.047,0,0,1,.028.086l-.283.209.106.336a.047.047,0,0,1-.073.053l-.286-.2-.286.2a.047.047,0,0,1-.073-.053l.106-.336-.283-.209a.047.047,0,0,1,.028-.086l.352,0,.111-.334A.047.047,0,0,1,181.406,153.684Z" transform="translate(-171.31 -151.047)" fill="#f5f5f5"/>
      <path id="Path_1427" data-name="Path 1427" d="M181.406,184.338l.111.334.352,0a.047.047,0,0,1,.028.086l-.283.209.106.336a.047.047,0,0,1-.073.053l-.286-.2-.286.2a.047.047,0,0,1-.073-.053l.106-.336-.283-.209a.047.047,0,0,1,.028-.086l.352,0,.111-.334A.047.047,0,0,1,181.406,184.338Z" transform="translate(-171.31 -179.953)" fill="#f5f5f5"/>
      <path id="Path_1428" data-name="Path 1428" d="M181.406,214.993l.111.334.352,0a.047.047,0,0,1,.028.086l-.283.209.106.336a.047.047,0,0,1-.073.053l-.286-.2-.286.2a.047.047,0,0,1-.073-.053l.106-.336-.283-.209a.047.047,0,0,1,.028-.086l.352,0,.111-.334A.047.047,0,0,1,181.406,214.993Z" transform="translate(-171.31 -208.861)" fill="#f5f5f5"/>
      <path id="Path_1429" data-name="Path 1429" d="M205.2,108l.111.334.352,0a.047.047,0,0,1,.028.086l-.283.209.106.336a.047.047,0,0,1-.073.053l-.286-.2-.286.2a.047.047,0,0,1-.073-.053l.106-.336-.283-.209a.047.047,0,0,1,.028-.086l.352,0,.111-.334A.047.047,0,0,1,205.2,108Z" transform="translate(-193.747 -107.968)" fill="#f5f5f5"/>
      <path id="Path_1430" data-name="Path 1430" d="M205.2,138.655l.111.334.352,0a.047.047,0,0,1,.028.086l-.283.209.106.336a.047.047,0,0,1-.073.053l-.286-.2-.286.2a.047.047,0,0,1-.073-.053l.106-.336-.283-.209a.047.047,0,0,1,.028-.086l.352,0,.111-.334A.047.047,0,0,1,205.2,138.655Z" transform="translate(-193.747 -136.875)" fill="#f5f5f5"/>
      <path id="Path_1431" data-name="Path 1431" d="M205.2,169.309l.111.334.352,0a.047.047,0,0,1,.028.086l-.283.209.106.336a.047.047,0,0,1-.073.053l-.286-.2-.286.2a.047.047,0,0,1-.073-.053l.106-.336-.283-.209a.047.047,0,0,1,.028-.086l.352,0,.111-.334A.047.047,0,0,1,205.2,169.309Z" transform="translate(-193.747 -165.781)" fill="#f5f5f5"/>
      <path id="Path_1432" data-name="Path 1432" d="M205.2,199.963l.111.334.352,0a.047.047,0,0,1,.028.086l-.283.209.106.336a.047.047,0,0,1-.073.053l-.286-.2-.286.2a.047.047,0,0,1-.073-.053l.106-.336-.283-.209a.047.047,0,0,1,.028-.086l.352,0,.111-.334A.047.047,0,0,1,205.2,199.963Z" transform="translate(-193.747 -194.688)" fill="#f5f5f5"/>
      <path id="Path_1433" data-name="Path 1433" d="M205.2,230.618l.111.334.352,0a.047.047,0,0,1,.028.086l-.283.209.106.336a.047.047,0,0,1-.073.053l-.286-.2-.286.2a.047.047,0,0,1-.073-.053l.106-.336-.283-.209a.047.047,0,0,1,.028-.086l.352,0,.111-.334A.047.047,0,0,1,205.2,230.618Z" transform="translate(-193.747 -223.595)" fill="#f5f5f5"/>
    </g>
  </g>
</svg>
