<svg id="egypt_2_" data-name="egypt (2)" xmlns="http://www.w3.org/2000/svg" width="25" height="19.563" viewBox="0 0 29.858 19.563">
  <path id="Path_1434" data-name="Path 1434" d="M27.622,88.276H2.236A2.236,2.236,0,0,0,0,90.512V94.8H29.859V90.512A2.236,2.236,0,0,0,27.622,88.276Z" transform="translate(0 -88.276)" fill="#ff4b55"/>
  <path id="Path_1435" data-name="Path 1435" d="M0,316.193a2.236,2.236,0,0,0,2.236,2.236H27.622a2.236,2.236,0,0,0,2.236-2.236v-4.285H0Z" transform="translate(0 -298.866)" fill="#464655"/>
  <rect id="Rectangle_588" data-name="Rectangle 588" width="29.859" height="6.52" transform="translate(0 6.521)" fill="#f5f5f5"/>
  <path id="Path_1436" data-name="Path 1436" d="M231.1,213.42a.374.374,0,0,0-.492-.355l-.455.152-.111-.667a.819.819,0,0,0-.811-.687h-.426l-.445.548h.59l-.165.815-.48-.16a.374.374,0,0,0-.492.355v2.769l.663-.663-.312.937h-.35v.548H231.1v-.548h-.35l-.312-.937.663.663V213.42Zm-1.918,3.043h-.442l.3-.811.138.176v.635Zm.548,0v-.635l.138-.176.3.811Zm-.274-.993a2.014,2.014,0,0,1-.813-1.644.878.878,0,0,1,1.627,0A2.014,2.014,0,0,1,229.457,215.469Z" transform="translate(-214.528 -204.655)" fill="#f0c727"/>
</svg>
